<svg xmlns="http://www.w3.org/2000/svg" xmlns:xlink="http://www.w3.org/1999/xlink" version="1.1" width="256" height="256" viewBox="0 0 256 256" xml:space="preserve">

<defs>
</defs>
<g style="stroke: none; stroke-width: 0; stroke-dasharray: none; stroke-linecap: butt; stroke-linejoin: miter; stroke-miterlimit: 10; fill: none; fill-rule: nonzero; opacity: 1;" transform="translate(1.4065934065934016 1.4065934065934016) scale(2.81 2.81)" >
	<path d="M 70.829 47.945 C 69.366 60.917 58.363 71 45 71 c -14.359 0 -26 -11.641 -26 -26 c 0 -13.363 10.083 -24.366 23.055 -25.829 V 0.055 c -23.453 1.545 -42 21.046 -42 44.889 c 0 24.853 20.147 45 45 45 c 23.844 0 43.344 -18.548 44.889 -42 H 70.829 z" style="stroke: none; stroke-width: 1; stroke-dasharray: none; stroke-linecap: butt; stroke-linejoin: miter; stroke-miterlimit: 10; fill: rgb(0,171,224); fill-rule: nonzero; opacity: 1;" transform=" matrix(1 0 0 1 0 0) " stroke-linecap="round" />
	<path d="M 70.815 41.945 h 19.129 c -1.48 -22.46 -19.43 -40.409 -41.889 -41.889 v 19.129 C 59.971 20.58 69.42 30.029 70.815 41.945 z" style="stroke: none; stroke-width: 1; stroke-dasharray: none; stroke-linecap: butt; stroke-linejoin: miter; stroke-miterlimit: 10; fill: rgb(114,213,74); fill-rule: nonzero; opacity: 1;" transform=" matrix(1 0 0 1 0 0) " stroke-linecap="round" />
</g>
</svg>