<svg xmlns="http://www.w3.org/2000/svg" xmlns:xlink="http://www.w3.org/1999/xlink" version="1.1" width="256" height="256" viewBox="0 0 256 256" xml:space="preserve">

<defs>
</defs>
<g style="stroke: none; stroke-width: 0; stroke-dasharray: none; stroke-linecap: butt; stroke-linejoin: miter; stroke-miterlimit: 10; fill: none; fill-rule: nonzero; opacity: 1;" transform="translate(1.4065934065934016 1.4065934065934016) scale(2.81 2.81)" >
	<path d="M 47.237 42.763 h 30.675 c -1.084 -16.447 -14.228 -29.591 -30.675 -30.675 V 42.763 z" style="stroke: none; stroke-width: 1; stroke-dasharray: none; stroke-linecap: butt; stroke-linejoin: miter; stroke-miterlimit: 10; fill: rgb(114,213,74); fill-rule: nonzero; opacity: 1;" transform=" matrix(1 0 0 1 0 0) " stroke-linecap="round" />
	<path d="M 49.085 47.156 l 15.699 24.188 c 7.47 -5.599 12.476 -14.298 13.128 -24.188 H 49.085 z" style="stroke: none; stroke-width: 1; stroke-dasharray: none; stroke-linecap: butt; stroke-linejoin: miter; stroke-miterlimit: 10; fill: rgb(255,114,88); fill-rule: nonzero; opacity: 1;" transform=" matrix(1 0 0 1 0 0) " stroke-linecap="round" />
	<path d="M 42.844 45.61 V 12.087 C 25.67 13.219 12.087 27.499 12.087 44.96 c 0 18.199 14.754 32.953 32.953 32.953 c 5.831 0 11.305 -1.521 16.057 -4.178 L 42.844 45.61 z" style="stroke: none; stroke-width: 1; stroke-dasharray: none; stroke-linecap: butt; stroke-linejoin: miter; stroke-miterlimit: 10; fill: rgb(0,171,224); fill-rule: nonzero; opacity: 1;" transform=" matrix(1 0 0 1 0 0) " stroke-linecap="round" />
	<path d="M 89 67.954 H 77.352 c -0.241 0 -0.475 -0.087 -0.656 -0.245 L 63.733 56.436 c -0.417 -0.362 -0.461 -0.994 -0.099 -1.411 c 0.363 -0.418 0.995 -0.459 1.411 -0.099 l 12.68 11.028 H 89 c 0.553 0 1 0.447 1 1 S 89.553 67.954 89 67.954 z" style="stroke: none; stroke-width: 1; stroke-dasharray: none; stroke-linecap: butt; stroke-linejoin: miter; stroke-miterlimit: 10; fill: rgb(193,193,193); fill-rule: nonzero; opacity: 1;" transform=" matrix(1 0 0 1 0 0) " stroke-linecap="round" />
	<path d="M 89 72.962 H 77.609 c -0.553 0 -1 -0.447 -1 -1 s 0.447 -1 1 -1 H 89 c 0.553 0 1 0.447 1 1 S 89.553 72.962 89 72.962 z" style="stroke: none; stroke-width: 1; stroke-dasharray: none; stroke-linecap: butt; stroke-linejoin: miter; stroke-miterlimit: 10; fill: rgb(193,193,193); fill-rule: nonzero; opacity: 1;" transform=" matrix(1 0 0 1 0 0) " stroke-linecap="round" />
	<path d="M 56.808 31.219 c -0.279 0 -0.557 -0.116 -0.755 -0.344 c -0.362 -0.417 -0.318 -1.048 0.099 -1.411 l 16.956 -14.747 c 0.182 -0.158 0.415 -0.246 0.656 -0.246 H 89 c 0.553 0 1 0.448 1 1 s -0.447 1 -1 1 H 74.138 L 57.464 30.974 C 57.274 31.139 57.041 31.219 56.808 31.219 z" style="stroke: none; stroke-width: 1; stroke-dasharray: none; stroke-linecap: butt; stroke-linejoin: miter; stroke-miterlimit: 10; fill: rgb(193,193,193); fill-rule: nonzero; opacity: 1;" transform=" matrix(1 0 0 1 0 0) " stroke-linecap="round" />
	<path d="M 89 9.922 H 74.101 c -0.553 0 -1 -0.448 -1 -1 s 0.447 -1 1 -1 H 89 c 0.553 0 1 0.448 1 1 S 89.553 9.922 89 9.922 z" style="stroke: none; stroke-width: 1; stroke-dasharray: none; stroke-linecap: butt; stroke-linejoin: miter; stroke-miterlimit: 10; fill: rgb(193,193,193); fill-rule: nonzero; opacity: 1;" transform=" matrix(1 0 0 1 0 0) " stroke-linecap="round" />
	<path d="M 16.236 75.527 H 1 c -0.552 0 -1 -0.447 -1 -1 s 0.448 -1 1 -1 h 14.862 l 16.673 -14.502 c 0.417 -0.361 1.049 -0.318 1.411 0.099 c 0.363 0.417 0.318 1.049 -0.098 1.411 L 16.893 75.282 C 16.71 75.44 16.478 75.527 16.236 75.527 z" style="stroke: none; stroke-width: 1; stroke-dasharray: none; stroke-linecap: butt; stroke-linejoin: miter; stroke-miterlimit: 10; fill: rgb(193,193,193); fill-rule: nonzero; opacity: 1;" transform=" matrix(1 0 0 1 0 0) " stroke-linecap="round" />
	<path d="M 15.899 82.078 H 1 c -0.552 0 -1 -0.447 -1 -1 s 0.448 -1 1 -1 h 14.899 c 0.552 0 1 0.447 1 1 S 16.451 82.078 15.899 82.078 z" style="stroke: none; stroke-width: 1; stroke-dasharray: none; stroke-linecap: butt; stroke-linejoin: miter; stroke-miterlimit: 10; fill: rgb(193,193,193); fill-rule: nonzero; opacity: 1;" transform=" matrix(1 0 0 1 0 0) " stroke-linecap="round" />
</g>
</svg>