<svg xmlns="http://www.w3.org/2000/svg" xmlns:xlink="http://www.w3.org/1999/xlink" version="1.1" width="256" height="256" viewBox="0 0 256 256" xml:space="preserve">

<defs>
</defs>
<g style="stroke: none; stroke-width: 0; stroke-dasharray: none; stroke-linecap: butt; stroke-linejoin: miter; stroke-miterlimit: 10; fill: none; fill-rule: nonzero; opacity: 1;" transform="translate(1.4065934065934016 1.4065934065934016) scale(2.81 2.81)" >
	<path d="M 77.913 36.274 C 76.829 19.827 63.685 6.683 47.237 5.599 v 30.675 H 77.913 z" style="stroke: none; stroke-width: 1; stroke-dasharray: none; stroke-linecap: butt; stroke-linejoin: miter; stroke-miterlimit: 10; fill: rgb(114,213,74); fill-rule: nonzero; opacity: 1;" transform=" matrix(1 0 0 1 0 0) " stroke-linecap="round" />
	<path d="M 56.808 26.474 c -0.279 0 -0.557 -0.116 -0.755 -0.344 c -0.362 -0.417 -0.318 -1.048 0.099 -1.411 L 73.107 9.972 c 0.182 -0.158 0.415 -0.246 0.656 -0.246 H 89 c 0.553 0 1 0.448 1 1 s -0.447 1 -1 1 H 74.138 L 57.464 26.228 C 57.274 26.393 57.041 26.474 56.808 26.474 z" style="stroke: none; stroke-width: 1; stroke-dasharray: none; stroke-linecap: butt; stroke-linejoin: miter; stroke-miterlimit: 10; fill: rgb(193,193,193); fill-rule: nonzero; opacity: 1;" transform=" matrix(1 0 0 1 0 0) " stroke-linecap="round" />
	<path d="M 89 5.176 H 74.101 c -0.553 0 -1 -0.448 -1 -1 s 0.447 -1 1 -1 H 89 c 0.553 0 1 0.448 1 1 S 89.553 5.176 89 5.176 z" style="stroke: none; stroke-width: 1; stroke-dasharray: none; stroke-linecap: butt; stroke-linejoin: miter; stroke-miterlimit: 10; fill: rgb(193,193,193); fill-rule: nonzero; opacity: 1;" transform=" matrix(1 0 0 1 0 0) " stroke-linecap="round" />
	<path d="M 16.236 70.782 H 1 c -0.552 0 -1 -0.447 -1 -1 s 0.448 -1 1 -1 h 14.862 L 32.536 54.28 c 0.417 -0.361 1.049 -0.318 1.411 0.099 c 0.363 0.417 0.318 1.049 -0.098 1.411 L 16.893 70.537 C 16.71 70.695 16.478 70.782 16.236 70.782 z" style="stroke: none; stroke-width: 1; stroke-dasharray: none; stroke-linecap: butt; stroke-linejoin: miter; stroke-miterlimit: 10; fill: rgb(193,193,193); fill-rule: nonzero; opacity: 1;" transform=" matrix(1 0 0 1 0 0) " stroke-linecap="round" />
	<path d="M 15.899 77.333 H 1 c -0.552 0 -1 -0.447 -1 -1 s 0.448 -1 1 -1 h 14.899 c 0.552 0 1 0.447 1 1 S 16.451 77.333 15.899 77.333 z" style="stroke: none; stroke-width: 1; stroke-dasharray: none; stroke-linecap: butt; stroke-linejoin: miter; stroke-miterlimit: 10; fill: rgb(193,193,193); fill-rule: nonzero; opacity: 1;" transform=" matrix(1 0 0 1 0 0) " stroke-linecap="round" />
	<rect x="45.7" y="77.53" rx="0" ry="0" width="12.3" height="9.3" style="stroke: none; stroke-width: 1; stroke-dasharray: none; stroke-linecap: butt; stroke-linejoin: miter; stroke-miterlimit: 10; fill: rgb(255,114,88); fill-rule: nonzero; opacity: 1;" transform=" matrix(1 0 0 1 0 0) "/>
	<rect x="61.7" y="52.52" rx="0" ry="0" width="12.3" height="34.3" style="stroke: none; stroke-width: 1; stroke-dasharray: none; stroke-linecap: butt; stroke-linejoin: miter; stroke-miterlimit: 10; fill: rgb(0,171,224); fill-rule: nonzero; opacity: 1;" transform=" matrix(1 0 0 1 0 0) "/>
	<rect x="77.7" y="67.53" rx="0" ry="0" width="12.3" height="19.3" style="stroke: none; stroke-width: 1; stroke-dasharray: none; stroke-linecap: butt; stroke-linejoin: miter; stroke-miterlimit: 10; fill: rgb(114,213,74); fill-rule: nonzero; opacity: 1;" transform=" matrix(1 0 0 1 0 0) "/>
	<path d="M 57.701 52.525 v -4 h 4 H 74 h 2.42 c 0.801 -2.503 1.313 -5.134 1.492 -7.857 H 42.844 V 5.599 C 25.669 6.731 12.087 21.011 12.087 38.471 c 0 18.2 14.754 32.953 32.953 32.953 c 4.488 0 8.763 -0.903 12.661 -2.528 V 52.525 z" style="stroke: none; stroke-width: 1; stroke-dasharray: none; stroke-linecap: butt; stroke-linejoin: miter; stroke-miterlimit: 10; fill: rgb(0,171,224); fill-rule: nonzero; opacity: 1;" transform=" matrix(1 0 0 1 0 0) " stroke-linecap="round" />
</g>
</svg>