<?xml version="1.0" ?><svg width="48px" height="48px" viewBox="0 0 48 48" id="svg5" version="1.1" xml:space="preserve"
  xmlns="http://www.w3.org/2000/svg" xmlns:svg="http://www.w3.org/2000/svg">
  <defs id="defs2" />
  <g id="layer1" transform="translate(-242.00002,-377)">
    <path d="m 248.56071,413.9418 h 4 v 7 h -4 z" id="path52038"
      style="color:#000000;fill:#ff5576;fill-opacity:1;fill-rule:evenodd;stroke-width:2;stroke-linecap:round;stroke-linejoin:round;stroke-miterlimit:4.1;-inkscape-stroke:none" />
    <path
      d="m 285.54899,381.9418 c 0,0 -1.12948,0.0146 -2.3164,0.0215 -0.59346,0.003 -1.2014,0.005 -1.68555,0.002 -0.48416,-0.003 -0.9537,-0.0275 -0.86914,-0.0176 a 1,1 0 0 0 -1.11133,0.87695 1,1 0 0 0 0.87695,1.11133 c 0.32061,0.0376 0.5942,0.0267 1.0918,0.0293 0.42955,0.003 0.94733,0.003 1.46484,0 l -12.25976,11.44336 -3.34766,-5.02149 c -0.33202,-0.49827 -1.0245,-0.59511 -1.48047,-0.20703 l -20,17 c -0.42087,0.35803 -0.4716,0.98954 -0.11328,1.41016 0.35803,0.42087 0.98954,0.4716 1.41016,0.11328 l 19.14258,-16.27149 3.37695,5.06446 c 0.34252,0.51263 1.06279,0.59628 1.51367,0.17578 l 13.31836,-12.42973 v 2.69922 a 1,1 0 0 0 1,1 1,1 0 0 0 1,-1 v -5 a 1.0001,1.0001 0 0 0 -1.01172,-1 z"
      id="path30982"
      style="color:#000000;fill:#808b9b;fill-opacity:1;fill-rule:evenodd;stroke-linecap:round;stroke-linejoin:round;stroke-miterlimit:4.1;-inkscape-stroke:none" />
    <path d="m 256.55567,408.9418 h 4 v 12 h -4 c 0,-4 0,-8 0,-12 z" id="path54017"
      style="color:#000000;fill:#fcca3d;fill-opacity:1;fill-rule:evenodd;stroke-width:2;stroke-linecap:round;stroke-linejoin:round;stroke-miterlimit:4.1" />
    <path d="m 264.55567,404.05291 h 4 v 16.88889 h -4 c 0,-5.62963 0,-11.25926 0,-16.88889 z" id="path54021"
      style="color:#000000;fill:#e7e7e7;fill-opacity:1;fill-rule:evenodd;stroke-width:2;stroke-linecap:round;stroke-linejoin:round;stroke-miterlimit:4.1" />
    <path d="m 272.55567,400.9418 h 4 v 20.00003 h -4 c 0,-6.66668 0,-13.33335 0,-20.00003 z" id="path54025"
      style="color:#000000;fill:#e7e7e7;fill-opacity:1;fill-rule:evenodd;stroke-width:2;stroke-linecap:round;stroke-linejoin:round;stroke-miterlimit:4.1" />
    <path d="m 280.55567,394.9418 h 4 v 26 h -4 c 0,-8.66667 0,-17.33333 0,-26 z" id="path54029"
      style="color:#000000;fill:#e7e7e7;fill-opacity:1;fill-rule:evenodd;stroke-width:2;stroke-linecap:round;stroke-linejoin:round;stroke-miterlimit:4.1;-inkscape-stroke:none" />
  </g>
</svg>