<svg xmlns="http://www.w3.org/2000/svg" xmlns:xlink="http://www.w3.org/1999/xlink" version="1.1" width="256" height="256" viewBox="0 0 256 256" xml:space="preserve">

<defs>
</defs>
<g style="stroke: none; stroke-width: 0; stroke-dasharray: none; stroke-linecap: butt; stroke-linejoin: miter; stroke-miterlimit: 10; fill: none; fill-rule: nonzero; opacity: 1;" transform="translate(1.4065934065934016 1.4065934065934016) scale(2.81 2.81)" >
	<path d="M 53.341 37.753 c 0.306 -1.543 -0.016 -3.061 -0.906 -4.276 c -0.889 -1.215 -2.24 -1.98 -3.803 -2.154 c -1.537 -0.174 -3.091 0.252 -4.377 1.194 L 18.081 51.684 l 0.129 -6.785 c 0.029 -1.516 -0.548 -2.919 -1.623 -3.951 c -1.114 -1.069 -2.603 -1.601 -4.219 -1.507 c -3.212 0.194 -5.873 2.905 -5.933 6.041 L 5.969 70.054 c -0.099 4.39 1.178 8.525 3.692 11.958 c 3.239 4.423 8.175 7.212 13.898 7.85 C 24.386 89.955 25.214 90 26.04 90 c 4.869 0 9.678 -1.586 13.762 -4.577 l 10.955 -8.022 c 2.683 -1.966 3.38 -5.595 1.553 -8.089 c -0.926 -1.265 -2.326 -1.997 -3.831 -2.158 l 0.285 -0.209 c 1.285 -0.941 2.158 -2.295 2.458 -3.812 c 0.306 -1.543 -0.016 -3.062 -0.906 -4.276 c -0.89 -1.215 -2.241 -1.98 -3.803 -2.154 c -0.282 -0.032 -0.564 -0.036 -0.844 -0.028 c 0.358 -0.599 0.619 -1.252 0.755 -1.942 c 0.306 -1.543 -0.016 -3.062 -0.906 -4.276 c -0.889 -1.215 -2.24 -1.98 -3.803 -2.154 c -0.01 -0.001 -0.02 -0.001 -0.03 -0.002 l 9.196 -6.734 C 52.168 40.624 53.041 39.27 53.341 37.753 z" style="stroke: none; stroke-width: 1; stroke-dasharray: none; stroke-linecap: butt; stroke-linejoin: miter; stroke-miterlimit: 10; fill: rgb(251,206,157); fill-rule: nonzero; opacity: 1;" transform=" matrix(1 0 0 1 0 0) " stroke-linecap="round" />
	<path d="M 80.551 24.258 h -3.971 C 75.11 15.69 68.347 8.927 59.779 7.457 V 3.485 c 0 -1.925 -1.56 -3.485 -3.485 -3.485 s -3.485 1.561 -3.485 3.485 v 3.972 C 44.24 8.927 37.476 15.69 36.007 24.258 h -3.972 c -1.925 0 -3.485 1.561 -3.485 3.485 s 1.561 3.485 3.485 3.485 h 3.972 c 0.114 0.666 0.271 1.317 0.448 1.96 l 5.399 -3.953 c 0.277 -0.203 0.562 -0.389 0.853 -0.562 c -0.021 -0.309 -0.047 -0.616 -0.047 -0.93 c 0 -7.517 6.115 -13.633 13.633 -13.633 s 13.633 6.116 13.633 13.633 c 0 7.513 -6.108 13.625 -13.619 13.632 c -0.725 1.348 -1.747 2.537 -3.021 3.47 l -3.362 2.462 c 0.935 0.305 1.896 0.552 2.884 0.722 v 3.972 c 0 1.925 1.56 3.485 3.485 3.485 s 3.485 -1.561 3.485 -3.485 v -3.972 c 8.568 -1.469 15.332 -8.232 16.801 -16.801 h 3.971 c 1.925 0 3.485 -1.561 3.485 -3.485 S 82.476 24.258 80.551 24.258 z" style="stroke: none; stroke-width: 1; stroke-dasharray: none; stroke-linecap: butt; stroke-linejoin: miter; stroke-miterlimit: 10; fill: rgb(75,109,170); fill-rule: nonzero; opacity: 1;" transform=" matrix(1 0 0 1 0 0) " stroke-linecap="round" />
</g>
</svg>